<?xml version="1.0" standalone="no"?>
<!DOCTYPE svg PUBLIC "-//W3C//DTD SVG 20010904//EN"
 "http://www.w3.org/TR/2001/REC-SVG-20010904/DTD/svg10.dtd">
<svg version="1.0" xmlns="http://www.w3.org/2000/svg"
 width="80" height="80" viewBox="0 0 280 280"
 preserveAspectRatio="xMidYMid meet">
<metadata>
Created by potrace 1.16, written by Peter Selinger 2001-2019
</metadata>
<g transform="translate(0.000000,280.000000) scale(0.100000,-0.100000)"
fill="#000000" stroke="none">
<path d="M1063 2579 c-142 -38 -251 -99 -351 -198 -79 -79 -114 -130 -167
-244 -57 -122 -75 -201 -75 -323 0 -334 238 -698 581 -886 89 -50 226 -88 359
-100 52 -5 188 29 265 67 225 111 386 407 402 740 19 399 -185 756 -515 902
-144 63 -354 81 -499 42z m334 -75 c277 -57 484 -270 575 -591 30 -107 32
-341 4 -453 -53 -209 -161 -382 -293 -469 -111 -74 -288 -97 -433 -56 -322 90
-614 406 -685 741 -72 341 143 709 475 813 36 11 76 22 90 24 61 10 197 6 267
-9z"/>
<path d="M1284 2281 c-38 -64 -121 -75 -176 -24 l-26 25 -46 -27 c-45 -26 -45
-27 -40 -69 8 -56 -16 -103 -63 -122 -19 -8 -44 -14 -56 -12 -18 3 -24 -5 -36
-50 l-14 -53 36 -30 c57 -47 60 -126 7 -174 -18 -16 -18 -18 8 -60 25 -43 27
-43 78 -42 64 1 94 -17 122 -76 26 -54 55 -77 100 -77 74 0 111 98 57 152 -13
14 -43 30 -66 37 -63 19 -96 49 -129 115 -34 67 -37 104 -15 167 23 63 58 104
117 133 86 43 188 29 256 -37 47 -45 63 -79 74 -161 11 -81 37 -130 80 -152
37 -19 73 -12 93 20 19 29 11 72 -16 87 -26 13 -49 61 -49 101 0 32 21 74 44
90 7 5 2 24 -16 55 l-27 48 -51 -3 c-35 -3 -58 1 -76 13 -29 19 -57 78 -49
104 4 12 -3 20 -27 28 -75 26 -75 26 -94 -6z"/>
<path d="M1346 1587 c-34 -11 -39 -16 -43 -47 -2 -25 -15 -45 -48 -76 -49 -44
-53 -58 -29 -92 19 -27 58 -29 80 -3 50 58 65 71 89 77 39 10 92 -19 112 -60
14 -31 15 -39 2 -73 -9 -22 -27 -45 -47 -56 -30 -18 -35 -18 -96 -3 -71 18
-111 13 -126 -14 -30 -57 6 -91 86 -83 51 6 55 4 86 -29 32 -34 34 -34 73 -23
35 10 41 16 46 48 8 49 34 76 79 83 33 5 39 11 49 45 12 38 11 40 -24 73 -38
36 -44 66 -23 111 10 23 9 29 -20 57 -28 29 -34 30 -57 20 -45 -21 -75 -14
-111 23 -18 19 -34 35 -36 34 -2 0 -20 -6 -42 -12z"/>
<path d="M60 486 l0 -206 35 0 34 0 3 132 3 133 64 -108 c82 -139 87 -139 161
-11 30 52 61 100 68 106 9 8 12 -17 12 -121 l0 -131 35 0 35 0 0 205 0 205
-33 0 c-32 0 -36 -5 -108 -130 -41 -71 -78 -129 -84 -129 -5 0 -44 57 -85 127
-70 117 -78 127 -108 130 l-32 3 0 -205z"/>
<path d="M705 668 c4 -13 34 -105 67 -205 l61 -183 41 0 41 0 49 145 c27 80
52 145 55 145 3 0 25 -60 49 -133 23 -72 46 -138 51 -145 5 -8 22 -12 46 -10
l38 3 68 203 67 202 -37 0 -37 0 -49 -150 c-27 -82 -52 -150 -55 -150 -3 0
-28 68 -55 150 l-49 150 -36 0 -36 0 -49 -150 c-28 -82 -53 -149 -56 -150 -3
0 -28 68 -54 150 l-49 150 -39 0 c-35 0 -38 -2 -32 -22z"/>
<path d="M1493 676 c3 -7 34 -100 68 -205 l63 -191 42 0 43 0 48 145 c26 80
50 145 54 145 3 0 27 -65 53 -145 l48 -145 42 0 42 0 63 193 c35 105 66 198
68 205 4 10 -5 13 -33 10 l-38 -3 -50 -148 c-27 -81 -52 -144 -56 -140 -4 4
-29 72 -55 151 l-47 143 -36 -3 -36 -3 -52 -150 c-60 -173 -48 -176 -115 33
l-40 122 -40 0 c-31 0 -40 -3 -36 -14z"/>
<path d="M2310 484 l0 -205 38 3 37 3 0 123 c0 67 3 122 6 122 4 0 33 -45 65
-100 79 -133 83 -133 166 7 l63 107 3 -132 3 -132 34 0 35 0 0 206 0 205 -32
-3 c-29 -3 -38 -14 -107 -130 -41 -71 -79 -128 -83 -128 -4 0 -42 58 -85 130
-74 124 -79 130 -110 130 l-33 0 0 -206z"/>
</g>
</svg>
